<svg xmlns="http://www.w3.org/2000/svg" xmlns:xlink="http://www.w3.org/1999/xlink" viewBox="0 0 48 48" width="750px" height="750px">
  <defs>
    <style>
      .cls-1 {
        fill: #64717c;
      }

      .cls-2 {
        fill: url(#Безымянный_градиент_38);
      }

      .cls-3 {
        fill: url(#Безымянный_градиент_38-2);
      }

      .cls-4 {
        fill: url(#Безымянный_градиент_38-3);
      }

      .cls-5 {
        fill: url(#Безымянный_градиент_11);
      }

      .cls-6 {
        fill: url(#Безымянный_градиент_38-4);
      }

      .cls-7 {
        fill: url(#Безымянный_градиент_38-5);
      }

      .cls-8 {
        fill: url(#Безымянный_градиент_38-6);
      }

      .cls-9 {
        opacity: 0.05;
      }

      .cls-10 {
        opacity: 0.07;
      }

      .cls-11 {
        fill: url(#Безымянный_градиент_34);
      }
    </style>
    <linearGradient id="Безымянный_градиент_38" data-name="Безымянный градиент 38" x1="38.58579" y1="35.58579" x2="41.41421" y2="38.41421" gradientUnits="userSpaceOnUse">
      <stop offset="0" stop-color="#4fe5ff"/>
      <stop offset="1" stop-color="#2eb7ed"/>
    </linearGradient>
    <linearGradient id="Безымянный_градиент_38-2" x1="41.58579" y1="29.58579" x2="44.41421" y2="32.41421" xlink:href="#Безымянный_градиент_38"/>
    <linearGradient id="Безымянный_градиент_38-3" x1="35.58579" y1="41.58579" x2="38.41421" y2="44.41421" xlink:href="#Безымянный_градиент_38"/>
    <linearGradient id="Безымянный_градиент_11" data-name="Безымянный градиент 11" x1="14.7099" y1="743.48118" x2="33.43316" y2="792.25608" gradientTransform="translate(0 -752)" gradientUnits="userSpaceOnUse">
      <stop offset="0.076" stop-color="#ffda1c"/>
      <stop offset="1" stop-color="#feb705"/>
    </linearGradient>
    <linearGradient id="Безымянный_градиент_38-4" x1="6.58579" y1="35.58579" x2="9.41421" y2="38.41421" xlink:href="#Безымянный_градиент_38"/>
    <linearGradient id="Безымянный_градиент_38-5" x1="3.58579" y1="29.58579" x2="6.41421" y2="32.41421" xlink:href="#Безымянный_градиент_38"/>
    <linearGradient id="Безымянный_градиент_38-6" x1="9.58579" y1="41.58579" x2="12.41421" y2="44.41421" xlink:href="#Безымянный_градиент_38"/>
    <radialGradient id="Безымянный_градиент_34" data-name="Безымянный градиент 34" cx="18.136" cy="15.14664" r="15.8872" gradientUnits="userSpaceOnUse">
      <stop offset="0" stop-color="#4b4b4b"/>
      <stop offset="0.531" stop-color="#393939"/>
      <stop offset="1" stop-color="#252525"/>
    </radialGradient>
  </defs>
  <g>
    <path class="cls-1" d="M18,44H11a1,1,0,0,1,0-2h7V33a1,1,0,0,1,2,0v9A2.002,2.002,0,0,1,18,44Z"/>
    <path class="cls-1" d="M5,32a1,1,0,0,1-1-1V27a2.002,2.002,0,0,1,2-2h7a1,1,0,0,1,0,2H6v4A1,1,0,0,1,5,32Z"/>
    <path class="cls-1" d="M13,38H8a1,1,0,0,1,0-2h5V28a1,1,0,0,1,2,0v8A2.002,2.002,0,0,1,13,38Z"/>
    <path class="cls-1" d="M37,44H30a2.002,2.002,0,0,1-2-2V33a1,1,0,0,1,2,0v9h7a1,1,0,0,1,0,2Z"/>
    <path class="cls-1" d="M43,32a1,1,0,0,1-1-1V27H35a1,1,0,0,1,0-2h7a2.002,2.002,0,0,1,2,2v4A1,1,0,0,1,43,32Z"/>
    <path class="cls-1" d="M40,38H35a2.002,2.002,0,0,1-2-2V28a1,1,0,0,1,2,0v8h5a1,1,0,0,1,0,2Z"/>
  </g>
  <circle class="cls-2" cx="40" cy="37" r="2"/>
  <circle class="cls-3" cx="43" cy="31" r="2"/>
  <circle class="cls-4" cx="37" cy="43" r="2"/>
  <path class="cls-5" d="M40.10526,9.4C30.154,9.4,30.01442,4,24,4S17.846,9.4,7.89474,9.4A.89771.89771,0,0,0,7,10.3v8.1A15.19355,15.19355,0,0,0,7.44111,22C10.06805,32.8063,23.618,39.9163,23.618,39.9163A1.08136,1.08136,0,0,0,24,40a1.16913,1.16913,0,0,0,.382-.0837S37.932,32.8063,40.55889,22A15.19355,15.19355,0,0,0,41,18.4V10.3A.89771.89771,0,0,0,40.10526,9.4Z"/>
  <circle class="cls-6" cx="8" cy="37" r="2"/>
  <circle class="cls-7" cx="5" cy="31" r="2"/>
  <circle class="cls-8" cx="11" cy="43" r="2"/>
  <g>
    <g class="cls-9">
      <path d="M24,16a3.99718,3.99718,0,0,1,1.5,7.70337V27.5a1.5,1.5,0,0,1-3,0V23.70337A3.99718,3.99718,0,0,1,24,16m0-1a4.9974,4.9974,0,0,0-2.5,9.326V27.5a2.5,2.5,0,0,0,5,0V24.326A4.9974,4.9974,0,0,0,24,15Z"/>
    </g>
    <g class="cls-10">
      <path d="M24,16a3.99718,3.99718,0,0,1,1.5,7.70337V27.5a1.5,1.5,0,0,1-3,0V23.70337A3.99718,3.99718,0,0,1,24,16m0-.5a4.49712,4.49712,0,0,0-2,8.52646V27.5a2,2,0,0,0,4,0V24.02646A4.49712,4.49712,0,0,0,24,15.5Z"/>
    </g>
    <path class="cls-11" d="M28,20a4,4,0,1,0-5.5,3.70337V27.5a1.5,1.5,0,0,0,3,0V23.70337A3.99652,3.99652,0,0,0,28,20Z"/>
  </g>
</svg>